<svg width="219" height="295" viewBox="0 0 219 295" fill="none" xmlns="http://www.w3.org/2000/svg">
<path d="M87.0808 79.0366C90.5595 79.7962 90.7072 79.9434 90.2417 83.1268C85.7657 115.904 134.702 126.125 150.38 95.6842C153.639 89.4014 156.376 87.3629 160.18 88.6229C161.683 89.121 162.127 89.8567 161.746 91.0067C154.626 112.502 184.615 138.731 203.777 127.703C210.548 123.859 219.608 115.474 221.575 111.315L223.336 107.481L228.642 108.649C237.928 110.547 237.986 110.076 231.991 87.2788C221.543 47.6937 209.514 28.8863 197.824 33.6527C194.29 35.1328 194.585 35.1323 187.461 54.5652C187.022 55.892 187.526 57.3351 188.647 58.0991C193.603 61.2134 201.29 58.753 197.364 55.1948C195.711 53.6656 195.71 53.3708 198.204 47.6199C201.872 39.2146 202.579 39.1544 206.337 47.3688C214.977 66.3298 221.069 77.2804 222.44 85.5878C222.827 87.6793 222.651 87.9154 222.088 86.6493C221.349 85.3247 215.627 82.7421 215.334 83.6267C215.276 83.8037 215.781 86.4253 216.494 89.3118C223.207 117.353 187.179 138.697 174.844 113.996C165.556 95.5081 186.729 72.4832 206.898 79.1637C212.471 81.0097 213.766 80.3589 210.755 77.2999C202.399 68.7405 182.071 71.1364 169.774 82.1807L165.714 85.8424L159.464 83.9683C155.896 82.8848 153.33 81.7403 153.506 81.2096C154.092 79.4404 150.812 74.5254 148.6 73.7929C145.77 72.8553 145.476 73.7399 146.9 78.6289C152.982 99.9816 121.426 118.194 106.132 102.133C86.9096 81.925 116.936 49.9544 139.746 66.4427C146.326 71.1746 147.476 71.5554 147.353 68.9624C146.494 51.1065 111.4 51.8508 97.3483 69.9707C93.5563 74.899 93.3205 75.0173 90.3129 74.021C87.7476 73.1713 87.3934 72.7595 88.3636 71.6084C89.0105 70.841 93.917 63.1406 99.4699 54.3781C116.863 26.7633 132.332 10.5855 131.497 21.1071C130.95 27.7974 127.083 40.0633 125.668 39.5945C121.953 38.3639 120.019 44.2022 123.53 46.3467C130.994 51.0769 141.443 29.0151 136.18 19.7132C130.296 9.32219 117.751 13.4126 106.26 29.7301C103.468 33.7136 98.4418 40.5891 95.0909 45.0745C77.8369 68.1216 75.9665 76.435 87.0808 79.0366Z" fill="#F3F7FF"/>
<path d="M236.803 216.781C235.17 194.742 230.022 199.614 230.929 211.695C231.413 218.53 231.27 220.151 230.266 219.328C213.767 205.421 171.273 204.794 140.917 218.201L126.431 224.593C128.86 215.483 130.294 210.264 130.789 207.287C131.256 204.693 127.51 202.667 126.159 205.263C124.544 208.36 122.699 214.227 119.622 223.516L117.905 219.511C109.41 199.519 71.0393 181.999 30.1332 179.542C23.2959 179.143 22.739 180.823 36.1386 160.818C54.2981 133.556 61.521 119.751 65.0471 114.44C66.6337 112.021 95.7359 121.071 105.825 127.064C115.266 132.645 134.453 150.289 136.495 155.089C137.147 156.679 136.332 162.102 133.44 175.575C129.117 195.739 129.822 194.5 131.268 195.764C133.895 197.91 138.046 180.34 144.016 158.463L158.359 153.986C192.286 143.432 215.554 153.2 220.064 153.811L222.884 164.267C229.175 187.358 228.687 195.049 231.775 191.36C232.921 189.973 227.723 152.617 225.979 149.585C222.668 143.875 184.038 129.509 148.621 146.932C139.347 151.518 140.231 151.516 137.454 147.455C119.546 121.203 68.0783 96.6948 60.1189 110.648C55.2433 119.144 30.4039 151.459 17.8342 173.996C14.6332 179.807 14.0175 181.37 14.346 183.639C14.7341 186.319 15.2949 186.701 19.2446 187.224C20.9248 187.486 20.9849 188.193 19.4945 194.768C17.9753 201.725 18.3965 206.38 20.5173 205.905C21.9901 205.607 21.1092 207.082 19.0786 208.471C14.2521 211.781 15.0077 221.945 20.1671 223.262C22.4372 223.817 22.9099 224.465 22.9736 226.94C23.0991 231.006 24.6627 231.917 29.2277 230.582C33.999 229.218 42.423 227.198 55.0079 228.323C67.5928 229.449 103.395 244.351 106.465 247.233C108.325 249.027 109.417 249.585 110.093 249.023C110.623 248.61 113.865 248.898 117.402 249.776C129.313 252.641 148.504 256.642 157.288 257.981C170.376 259.96 193.406 268.374 200.194 273.665C207.778 279.515 211.458 277.298 207.788 269.113C206.486 266.227 206.485 265.932 207.931 266.902C219.319 274.306 223.056 270.734 220.05 255.21C218.711 248.288 218.622 248.553 223.311 250.106C228.884 251.952 229.322 249.741 226.058 237.665C223.09 226.768 223.119 226.679 229.405 231.412C236.96 237.055 238.133 234.695 236.803 216.781ZM55.128 214.031C44.1021 211.459 32.4661 213.396 31.3758 213.428C29.7255 213.372 29.0747 212.077 30.4557 209.982C31.2784 208.684 32.2773 207.149 32.6002 206.471C34.8315 202.106 66.2251 207.498 79.5875 214.574C92.7138 221.474 94.426 223.121 104.962 231.323C85.0848 223.168 66.8909 216.749 55.128 214.031ZM115.565 228.651C75.1715 201.234 57.8034 194.99 30.4625 197.812C26.7798 198.261 23.6857 198.414 23.6559 198.207C23.5669 197.883 24.6769 192.754 25.7278 187.507C48.9522 189.408 67.6955 190.315 87.8405 200.031C93.8574 202.907 101.295 208.905 106.463 214.936C115.294 225.321 119.076 231.09 115.565 228.651ZM145.264 225.825C176.77 212.799 196.158 212.055 214.331 223.277C216.219 224.394 220.929 237.144 219.751 237.736C219.516 237.854 217.746 236.974 215.799 235.74C200.458 226.634 190.613 224.943 165.216 227.231C158.528 227.862 151.574 228.406 149.777 228.498C142.381 228.895 122.62 235.209 145.264 225.825ZM208.672 253.404C198.642 247.825 186.229 244.106 174.322 243.008C165.362 242.2 138.334 239.039 137.772 238.068C137.447 237.568 152.118 235.359 159.512 234.078C174.507 231.486 190.571 234.255 208.002 242.385C211.748 244.116 212.132 244.734 213.882 250.418C216.194 257.958 216.459 257.751 208.672 253.404Z" fill="#F3F7FF"/>
</svg>
