<svg width="44" height="44" viewBox="0 0 44 44" fill="none" xmlns="http://www.w3.org/2000/svg">
<path d="M19.1291 34.9716C19.1217 31.3083 19.1202 27.645 19.1308 23.9818C19.1319 23.618 18.9698 23.5626 18.6603 23.5655C17.4531 23.577 16.2456 23.5702 14.9998 23.5702V18.6883H15.7108C16.695 18.6883 17.6795 18.6746 18.6634 18.6953C19.028 18.7029 19.137 18.5795 19.1313 18.2253C19.1131 17.1059 19.121 15.9859 19.1267 14.8662C19.1446 11.404 21.5526 9.00121 25.0306 9C26.158 8.99958 27.2853 9.0672 28.4128 9.09772C28.8091 9.1084 29.0129 9.22235 28.9991 9.69029C28.9627 10.9333 28.9868 12.1779 28.9868 13.491C28.7504 13.491 28.563 13.4861 28.376 13.4918C27.4583 13.5198 26.5388 13.5232 25.6238 13.5884C24.7723 13.6491 24.2 14.1992 24.1482 15.03C24.0796 16.1294 24.0841 17.2332 24.0457 18.3346C24.0344 18.6595 24.2157 18.6923 24.4746 18.691C25.717 18.6847 26.9594 18.6882 28.2019 18.6883H28.8116C28.6011 20.3387 28.3988 21.9243 28.1889 23.5701H26.1782C25.5974 23.5702 25.0162 23.5809 24.4357 23.5659C24.1375 23.5582 24.0443 23.6761 24.0448 23.9623C24.0509 27.6415 24.0509 31.3208 24.0447 35" fill="white"/>
</svg>
