<svg width="17" height="18" viewBox="0 0 17 18" fill="none" xmlns="http://www.w3.org/2000/svg">
<path fill-rule="evenodd" clip-rule="evenodd" d="M0.666748 0.666504C0.390606 0.666504 0.166748 0.890361 0.166748 1.1665V4.33317C0.166748 4.60931 0.390605 4.83317 0.666748 4.83317H3.83341C4.10956 4.83317 4.33341 4.60931 4.33341 4.33317V1.1665C4.33341 0.890362 4.10956 0.666504 3.83341 0.666504H0.666748ZM6.41675 1.1665C6.41675 0.890361 6.64061 0.666504 6.91675 0.666504H10.0834C10.3596 0.666504 10.5834 0.890362 10.5834 1.1665V4.33317C10.5834 4.60931 10.3596 4.83317 10.0834 4.83317H6.91675C6.64061 4.83317 6.41675 4.60931 6.41675 4.33317V1.1665ZM12.6667 1.1665C12.6667 0.890361 12.8906 0.666504 13.1667 0.666504H16.3334C16.6096 0.666504 16.8334 0.890362 16.8334 1.1665V4.33317C16.8334 4.60931 16.6096 4.83317 16.3334 4.83317H13.1667C12.8906 4.83317 12.6667 4.60931 12.6667 4.33317V1.1665ZM12.6667 7.4165C12.6667 7.14036 12.8906 6.9165 13.1667 6.9165H16.3334C16.6096 6.9165 16.8334 7.14036 16.8334 7.4165V10.5832C16.8334 10.8593 16.6096 11.0832 16.3334 11.0832H13.1667C12.8906 11.0832 12.6667 10.8593 12.6667 10.5832V7.4165ZM13.1667 13.1667C12.8906 13.1667 12.6667 13.3906 12.6667 13.6667V16.8334C12.6667 17.1096 12.8906 17.3334 13.1667 17.3334H16.3334C16.6096 17.3334 16.8334 17.1096 16.8334 16.8334V13.6667C16.8334 13.3906 16.6096 13.1667 16.3334 13.1667H13.1667ZM6.91675 6.9165C6.64061 6.9165 6.41675 7.14036 6.41675 7.4165V10.5832C6.41675 10.8593 6.64061 11.0832 6.91675 11.0832H10.0834C10.3596 11.0832 10.5834 10.8593 10.5834 10.5832V7.4165C10.5834 7.14036 10.3596 6.9165 10.0834 6.9165H6.91675ZM6.41675 13.6667C6.41675 13.3906 6.64061 13.1667 6.91675 13.1667H10.0834C10.3596 13.1667 10.5834 13.3906 10.5834 13.6667V16.8334C10.5834 17.1096 10.3596 17.3334 10.0834 17.3334H6.91675C6.64061 17.3334 6.41675 17.1096 6.41675 16.8334V13.6667ZM0.166748 7.4165C0.166748 7.14036 0.390606 6.9165 0.666748 6.9165H3.83341C4.10956 6.9165 4.33341 7.14036 4.33341 7.4165V10.5832C4.33341 10.8593 4.10956 11.0832 3.83341 11.0832H0.666748C0.390605 11.0832 0.166748 10.8593 0.166748 10.5832V7.4165ZM0.666748 13.1667C0.390606 13.1667 0.166748 13.3906 0.166748 13.6667V16.8334C0.166748 17.1096 0.390605 17.3334 0.666748 17.3334H3.83341C4.10956 17.3334 4.33341 17.1096 4.33341 16.8334V13.6667C4.33341 13.3906 4.10956 13.1667 3.83341 13.1667H0.666748Z" fill="#8C9EFF"/>
</svg>
