<svg width="44" height="44" viewBox="0 0 44 44" fill="none" xmlns="http://www.w3.org/2000/svg">
<path fill-rule="evenodd" clip-rule="evenodd" d="M27.9999 12H15.9999C13.7907 12 11.9999 13.7909 11.9999 16V28C11.9999 30.2091 13.7907 32 15.9999 32H27.9999C30.209 32 31.9999 30.2091 31.9999 28V16C31.9999 13.7909 30.209 12 27.9999 12ZM15.9999 10C12.6862 10 9.99988 12.6863 9.99988 16V28C9.99988 31.3137 12.6862 34 15.9999 34H27.9999C31.3136 34 33.9999 31.3137 33.9999 28V16C33.9999 12.6863 31.3136 10 27.9999 10H15.9999ZM21.9999 26C24.209 26 25.9999 24.2091 25.9999 22C25.9999 19.7909 24.209 18 21.9999 18C19.7907 18 17.9999 19.7909 17.9999 22C17.9999 24.2091 19.7907 26 21.9999 26ZM21.9999 28C25.3136 28 27.9999 25.3137 27.9999 22C27.9999 18.6863 25.3136 16 21.9999 16C18.6862 16 15.9999 18.6863 15.9999 22C15.9999 25.3137 18.6862 28 21.9999 28ZM28.4999 17C29.3283 17 29.9999 16.3284 29.9999 15.5C29.9999 14.6716 29.3283 14 28.4999 14C27.6715 14 26.9999 14.6716 26.9999 15.5C26.9999 16.3284 27.6715 17 28.4999 17Z" fill="white"/>
</svg>
