<svg width="44" height="44" viewBox="0 0 44 44" fill="none" xmlns="http://www.w3.org/2000/svg">
<path d="M21.9998 9.21289C14.178 9.21289 7.83728 14.3459 7.83728 20.6778C7.83728 26.4638 13.132 31.2488 20.0132 32.0307L20.082 32.0464C20.7636 32.2096 20.7332 32.6247 20.7636 32.9592C20.768 33.0068 20.7705 33.0665 20.7712 33.1383L20.5465 35.4371L20.5455 35.5612C20.5722 35.886 20.828 36.1554 21.1639 36.1882C21.2858 36.2001 21.4086 36.1792 21.5198 36.1278C26.6912 33.7318 30.6467 30.8551 33.3856 27.4972C34.0067 26.8188 34.5375 26.0828 34.9612 25.3038C35.4889 24.4595 35.7587 23.8413 35.7704 23.4492L35.7689 23.368C36.0265 22.5055 36.1623 21.6045 36.1623 20.6778C36.1623 14.3459 29.8215 9.21289 21.9998 9.21289ZM19.0277 17.8311C19.2226 17.8311 19.3804 17.8959 19.5012 18.0253C19.6219 18.1548 19.6823 18.3519 19.6823 18.6167V23.6571L19.675 23.8079C19.6557 23.9983 19.5978 24.1459 19.5012 24.2506C19.3804 24.3815 19.2226 24.447 19.0277 24.447C18.8415 24.447 18.688 24.3808 18.5673 24.2484C18.4465 24.1161 18.3862 23.9189 18.3862 23.6571V18.6167L18.3933 18.4674C18.4124 18.2789 18.4697 18.1323 18.5651 18.0275C18.6844 17.8966 18.8386 17.8311 19.0277 17.8311ZM25.626 17.8311C25.8122 17.8311 25.9591 17.893 26.0668 18.0166C26.1744 18.1403 26.2282 18.3257 26.2282 18.573V23.6047L26.2213 23.7648C26.1794 24.2196 25.9489 24.447 25.53 24.447C25.4136 24.447 25.3089 24.4303 25.2158 24.3968C25.1227 24.3633 25.0354 24.3103 24.954 24.2375C24.8725 24.1648 24.7968 24.0797 24.727 23.9822C24.6572 23.8848 24.5874 23.7851 24.5175 23.6833L22.0868 19.9564V23.7051L22.08 23.8446C22.0618 24.021 22.0074 24.1593 21.9166 24.2593C21.8031 24.3844 21.6577 24.447 21.4802 24.447C21.2969 24.447 21.15 24.3837 21.0394 24.2572C20.9289 24.1306 20.8736 23.9466 20.8736 23.7051V18.7694L20.878 18.6208C20.8867 18.4806 20.9085 18.3657 20.9434 18.2763C20.9987 18.1454 21.0903 18.0384 21.2184 17.9555C21.3464 17.8726 21.4846 17.8311 21.6329 17.8311C21.7493 17.8311 21.849 17.8501 21.9319 17.8879C22.0148 17.9257 22.0875 17.9766 22.1501 18.0406C22.2126 18.1046 22.2766 18.1875 22.3421 18.2894C22.4075 18.3912 22.4752 18.4974 22.545 18.6079L25.0369 22.3785V18.573L25.0432 18.4321C25.0602 18.254 25.1112 18.1155 25.1962 18.0166C25.3023 17.893 25.4456 17.8311 25.626 17.8311ZM13.8258 17.8311C14.0208 17.8311 14.1786 17.8959 14.2993 18.0253C14.4201 18.1548 14.4805 18.3519 14.4805 18.6167V23.2731H17.1076L17.2556 23.2826C17.3944 23.3017 17.5058 23.3494 17.5898 23.4258C17.7018 23.5276 17.7578 23.6557 17.7578 23.8098C17.7578 23.967 17.7025 24.0942 17.592 24.1917C17.4814 24.2892 17.32 24.3379 17.1076 24.3379H13.9786L13.8188 24.3304C13.6184 24.3104 13.4687 24.2503 13.3698 24.1502C13.2462 24.0251 13.1843 23.8229 13.1843 23.5436V18.6167L13.1914 18.4674C13.2103 18.2789 13.2668 18.1323 13.3611 18.0275C13.4789 17.8966 13.6338 17.8311 13.8258 17.8311ZM31.5872 17.9402L31.7321 17.9488C31.8672 17.966 31.9723 18.009 32.0476 18.0777C32.148 18.1694 32.1981 18.2894 32.1981 18.4377C32.1981 18.589 32.148 18.7105 32.0476 18.8021C31.9472 18.8938 31.7937 18.9396 31.5872 18.9396H28.6677V20.5107H31.3559L31.4949 20.519C31.6244 20.5356 31.7257 20.5772 31.7988 20.6438C31.8963 20.7325 31.945 20.8496 31.945 20.9951C31.945 21.1405 31.897 21.2591 31.801 21.3507C31.705 21.4424 31.5566 21.4882 31.3559 21.4882H28.6677V23.308H31.6876L31.8309 23.3168C31.9648 23.3346 32.0705 23.3789 32.148 23.4498C32.2512 23.5444 32.3029 23.6702 32.3029 23.8273C32.3029 23.9786 32.2512 24.1015 32.148 24.1961C32.0447 24.2906 31.8912 24.3379 31.6876 24.3379H28.1658L28.006 24.3304C27.8056 24.3104 27.6559 24.2503 27.557 24.1502C27.4334 24.0251 27.3715 23.8229 27.3715 23.5436V18.7345L27.3767 18.6013C27.3871 18.4744 27.413 18.3668 27.4545 18.2785C27.5097 18.1606 27.5963 18.0748 27.7141 18.021C27.8319 17.9672 27.9825 17.9402 28.1658 17.9402H31.5872Z" fill="white"/>
</svg>
