<svg width="452" height="322" viewBox="0 0 452 322" fill="none" xmlns="http://www.w3.org/2000/svg">
<g clip-path="url(#clip0_458_18786)">
<rect width="932" height="522" fill="#F3F7FF"/>
<g opacity="0.2">
<rect width="22.1891" height="855.625" transform="matrix(0.91577 0.401704 -0.402284 0.915515 22.6091 -342.423)" fill="#D7E0FF"/>
<rect width="22.1891" height="855.625" transform="matrix(0.91577 0.401704 -0.402284 0.915515 64.3479 -324.114)" fill="#D7E0FF"/>
<rect width="22.1891" height="855.625" transform="matrix(0.91577 0.401704 -0.402284 0.915515 106.085 -305.805)" fill="#D7E0FF"/>
<rect width="22.1891" height="855.625" transform="matrix(0.91577 0.401704 -0.402284 0.915515 149.471 -286.773)" fill="#D7E0FF"/>
<rect width="22.1891" height="855.625" transform="matrix(0.91577 0.401704 -0.402284 0.915515 191.21 -268.465)" fill="#D7E0FF"/>
<rect width="22.1891" height="855.625" transform="matrix(0.91577 0.401704 -0.402284 0.915515 232.949 -250.155)" fill="#D7E0FF"/>
<rect width="22.1891" height="855.625" transform="matrix(0.91577 0.401704 -0.402284 0.915515 274.688 -231.848)" fill="#D7E0FF"/>
<rect width="22.1891" height="855.625" transform="matrix(0.91577 0.401704 -0.402284 0.915515 316.427 -213.539)" fill="#D7E0FF"/>
<rect width="22.1891" height="855.625" transform="matrix(0.91577 0.401704 -0.402284 0.915515 358.164 -195.229)" fill="#D7E0FF"/>
<rect width="22.1891" height="855.625" transform="matrix(0.91577 0.401704 -0.402284 0.915515 399.903 -176.921)" fill="#D7E0FF"/>
<rect width="22.1891" height="855.625" transform="matrix(0.91577 0.401704 -0.402284 0.915515 441.641 -158.612)" fill="#D7E0FF"/>
<rect width="22.1891" height="855.625" transform="matrix(0.91577 0.401704 -0.402284 0.915515 483.38 -140.305)" fill="#D7E0FF"/>
<rect width="22.1891" height="855.625" transform="matrix(0.91577 0.401704 -0.402284 0.915515 529.512 -120.067)" fill="#D7E0FF"/>
<rect width="22.1891" height="855.625" transform="matrix(0.91577 0.401704 -0.402284 0.915515 575.644 -99.833)" fill="#D7E0FF"/>
<rect width="22.1891" height="855.625" transform="matrix(0.91577 0.401704 -0.402284 0.915515 621.777 -79.5967)" fill="#D7E0FF"/>
<rect width="22.1891" height="855.625" transform="matrix(0.91577 0.401704 -0.402284 0.915515 667.908 -59.3604)" fill="#D7E0FF"/>
</g>
<g opacity="0.2">
<rect width="22.1891" height="968.152" transform="matrix(0.91577 0.401704 -0.402284 0.915515 790.022 -215.49)" fill="#D7E0FF"/>
<rect width="22.1891" height="968.152" transform="matrix(0.91577 0.401704 -0.402284 0.915515 831.76 -197.182)" fill="#D7E0FF"/>
</g>
</g>
<defs>
<clipPath id="clip0_458_18786">
<rect width="452" height="322" rx="20" fill="white"/>
</clipPath>
</defs>
</svg>
